Coordinates
version=1
nRows=32
nColumns=12
inDegrees=yes

Units are S.I. units (second, meters, Newtons, ...)
Angles are in degrees

endheader
time	SC_y	SC_z	SC_x	AC_y	AC_z	AC_x	GH_y	GH_z	GH_yy	EL_x	PS_y
       0.0              -23.88          10.12          71.79          33.57          3.886          14.34          51.58          88.97          7.151          86.38          79.93
  0.001569              -23.88          10.13          71.78          33.57          3.884          14.34          51.58          88.96          7.151          86.38          79.94
  0.003138              -23.88          10.13          71.77          33.57          3.881          14.33          51.58          88.95          7.151          86.38          79.95
  0.004707              -23.88          10.13          71.76          33.57          3.879          14.33          51.58          88.94          7.151          86.38          79.97
  0.006276              -23.88          10.14          71.75          33.58          3.877          14.33          51.58          88.93           7.15          86.37          79.98
  0.007845              -23.88          10.14          71.74          33.58          3.874          14.32          51.58          88.93           7.15          86.37          79.99
  0.009414              -23.88          10.15          71.73          33.59          3.871          14.32          51.58          88.91           7.15          86.37          80.01
   0.01098              -23.88          10.15          71.72          33.59          3.869          14.31          51.58           88.9           7.15          86.36          80.02
   0.01255              -23.88          10.16           71.7          33.59          3.865          14.31          51.58          88.89          7.149          86.36          80.04
   0.01412              -23.88          10.16          71.69           33.6          3.862           14.3          51.58          88.88          7.149          86.36          80.05
   0.01569              -23.88          10.17          71.67           33.6          3.858           14.3          51.58          88.87          7.149          86.35          80.07
   0.01726              -23.88          10.17          71.65          33.61          3.854          14.29          51.57          88.85          7.148          86.35          80.09
   0.01883              -23.88          10.18          71.63          33.61           3.85          14.28          51.57          88.84          7.148          86.34          80.11
    0.0204              -23.88          10.19          71.61          33.62          3.846          14.28          51.57          88.82          7.147          86.34          80.14
   0.02197              -23.88          10.19          71.59          33.63          3.841          14.27          51.57           88.8          7.147          86.33          80.16
   0.02353              -23.88           10.2          71.57          33.64          3.835          14.26          51.57          88.78          7.146          86.33          80.19
    0.0251              -23.88          10.21          71.54          33.64           3.83          14.25          51.57          88.76          7.146          86.32          80.22
   0.02667              -23.87          10.22          71.51          33.65          3.823          14.24          51.56          88.74          7.145          86.31          80.25
   0.02824              -23.87          10.23          71.48          33.66          3.817          14.23          51.56          88.71          7.144           86.3          80.29
   0.02981              -23.87          10.24          71.45          33.67          3.809          14.22          51.56          88.68          7.144          86.29          80.33
   0.03138              -23.87          10.26          71.41          33.68          3.801          14.21          51.56          88.65          7.143          86.28          80.37
   0.03295              -23.87          10.27          71.37           33.7          3.792          14.19          51.55          88.62          7.142          86.27          80.42
   0.03452              -23.87          10.28          71.32          33.71          3.782          14.18          51.55          88.58          7.141          86.26          80.47
   0.03609              -23.87           10.3          71.27          33.73           3.77          14.16          51.55          88.54           7.14          86.25          80.52
   0.03766              -23.87          10.32          71.22          33.74          3.758          14.14          51.54          88.49          7.138          86.24          80.59
   0.03922              -23.86          10.34          71.16          33.76          3.744          14.12          51.54          88.44          7.137          86.22          80.66
   0.04079              -23.86          10.37          71.09          33.79          3.729          14.09          51.53          88.39          7.135           86.2          80.74
   0.04236              -23.86          10.39          71.01          33.81          3.711          14.06          51.53          88.32          7.134          86.18          80.83
   0.04393              -23.86          10.42          70.92          33.84          3.691          14.03          51.52          88.25          7.132          86.16          80.93
    0.0455              -23.85          10.46          70.82          33.87          3.669           14.0          51.51          88.17          7.129          86.13          81.04
   0.04707              -23.85           10.5           70.7          33.91          3.644          13.96           51.5          88.07          7.127           86.1          81.18
   0.04864              -23.85          10.54          70.57          33.95          3.614          13.91          51.49          87.96          7.124          86.07          81.33
